HIERARCHY
ROOT Hips
{
	OFFSET 0.000000 0.000000 0.000000 
	CHANNELS 6 Xposition Yposition Zposition Yrotation Zrotation Xrotation 
	JOINT Lumbar
	{
		OFFSET 0.000000 0.000000 0.000000 
		CHANNELS 3 Zrotation Xrotation Yrotation
		JOINT Neck
		{
			OFFSET 0.000000 0.445665 0.000000 
			CHANNELS 3 Zrotation Xrotation Yrotation
			End Site
			{
				OFFSET 0.000000 0.227535 0.000000 
			}
		}
		JOINT RightShoulder
		{
			OFFSET 0.019635 0.377685 0.194865 
			CHANNELS 3 Zrotation Xrotation Yrotation
			JOINT RightElbow
			{
				OFFSET 0.000000 -0.243375 0.000000 
				CHANNELS 2 Zrotation Yrotation
				JOINT RightWrist
				{
					OFFSET 0.000000 -0.264825 0.000000 
					CHANNELS 2 Zrotation Xrotation
					End Site
					{
						OFFSET 0.006600 -0.176220 0.000990 
					}
				}
			}
		}
		JOINT LeftShoulder
		{
			OFFSET 0.019635 0.377685 -0.194865 
			CHANNELS 3 Zrotation Xrotation Yrotation
			JOINT LeftElbow
			{
				OFFSET 0.000000 -0.243375 0.000000 
				CHANNELS 2 Zrotation Yrotation
				JOINT LeftWrist
				{
					OFFSET 0.000000 -0.264825 0.000000 
					CHANNELS 2 Zrotation Xrotation
					End Site
					{
						OFFSET 0.006600 -0.176220 -0.000990 
					}
				}
			}
		}
	}
	JOINT RightHip
	{
		OFFSET 0.052140 -0.069960 0.075570 
		CHANNELS 3 Zrotation Xrotation Yrotation
		JOINT RightKnee
		{
			OFFSET 0.000000 -0.402270 0.000000 
			CHANNELS 1 Zrotation
			JOINT RightAnkle
			{
				OFFSET 0.000000 -0.404085 0.000000 
				CHANNELS 3 Zrotation Xrotation Yrotation
				End Site
				{
					OFFSET 0.204105 -0.089430 0.008415 
				}
			}
		}
	}
	JOINT LeftHip
	{
		OFFSET 0.052140 -0.069960 -0.075570 
		CHANNELS 3 Zrotation Xrotation Yrotation
		JOINT LeftKnee
		{
			OFFSET 0.000000 -0.402270 0.000000 
			CHANNELS 1 Zrotation
			JOINT LeftAnkle
			{
				OFFSET 0.000000 -0.404085 0.000000 
				CHANNELS 3 Zrotation Xrotation Yrotation
				End Site
				{
					OFFSET 0.204105 -0.089430 -0.008415 
				}
			}
		}
	}
}
MOTION
Frames: 19
Frame Time: 0.02
-0.18429 0.39937 0.36997 190.80225 0 -6.74056 -58.06927 12.97059 51.42582 -66.57766 38.96104 25.70163 126.31103 -32.80916 22.40679 75.01362 100.43573 -69.34515 -5.06868 139.54778 -16.21451 -55.62373 58.50994 -28.65214 -75.22903 -16.23172 28.08323 5.11162 0.78299 -134.44202 18.75534 14.88052 9.82404 34.19672 -0.64162 -14.85366 -144.25167 19.05409 -0.0963 -0.45154
-0.18621 0.40029 0.37093 190.5716 0 -6.72852 -58.06927 13.03026 51.65116 -66.57765 38.96099 25.68551 126.74575 -32.76085 23.10603 73.92315 100.52668 -69.35222 -5.06631 139.4455 -16.21478 -55.63836 59.16072 -28.77583 -75.22961 -16.31687 27.84445 5.10737 0.50371 -134.32193 18.81776 15.11755 9.76987 33.90463 -0.56901 -14.53025 -144.06866 19.07263 0.36191 -0.30421
-0.18747 0.40076 0.3717 190.23351 0 -6.71752 -58.06927 12.97991 51.86561 -66.57762 38.96092 25.62238 127.40941 -32.52178 24.06247 72.59542 100.48886 -69.37607 -5.06551 139.48765 -16.21468 -55.63384 59.59247 -29.09321 -75.22916 -16.28313 27.7401 5.15089 0.23811 -134.32514 18.88549 15.37462 9.70823 33.70631 -0.42868 -14.15503 -143.97165 19.1015 0.68622 -0.21011
-0.18897 0.40138 0.37254 189.94601 0 -6.69935 -58.06927 12.97496 52.07847 -66.5776 38.96086 25.5523 127.95925 -32.37264 24.91559 71.40683 100.47916 -69.41835 -5.09412 139.45252 -16.21466 -55.63314 60.1067 -29.19161 -75.22923 -16.08089 27.58342 5.16459 -0.05006 -134.28784 18.95131 15.62418 9.64688 33.47592 -0.32509 -13.79789 -143.84251 19.12652 1.11687 -0.07647
-0.19076 0.40223 0.37345 189.6505 0 -6.7075 -58.06927 12.99307 52.32198 -66.57758 38.96079 25.59095 128.55573 -32.21793 25.72859 70.08641 100.60005 -69.3585 -5.00677 139.45587 -16.21489 -55.63573 60.70293 -29.81773 -75.23022 -16.75357 27.38799 5.20906 -0.27157 -134.18556 19.01605 15.8737 9.5989 33.1996 -0.19898 -13.46225 -143.68145 19.15169 1.3115 -0.02494
-0.19177 0.40248 0.37417 189.34705 0 -6.66278 -58.06927 12.93698 52.49859 -66.57756 38.96073 25.40059 129.10565 -32.02657 26.67117 68.98578 100.42765 -69.50583 -5.15005 139.41927 -16.21427 -55.63197 61.0757 -29.42832 -75.22726 -15.64792 27.30503 5.2024 -0.62803 -134.24643 19.0838 16.12266 9.51996 33.04116 -0.10247 -13.0697 -143.60791 19.17914 1.98628 0.1947
-0.19079 0.40113 0.37435 189.03951 0 -6.4598 -58.06927 12.68567 52.4842 -66.57755 38.96072 24.53322 129.49287 -31.77854 28.01564 68.52911 99.34796 -70.30316 -6.01763 139.21522 -16.21521 -55.63644 60.84333 -25.83778 -75.23181 -9.06597 27.5106 5.03944 -1.35699 -134.74363 19.15975 16.39087 9.36965 33.19328 -0.10672 -12.53826 -143.76007 19.19032 3.97277 0.85192
-0.18906 0.39918 0.37435 188.72919 0 -6.20587 -58.06927 12.36576 52.40375 -66.57756 38.96073 23.44778 129.82113 -31.49941 29.46225 68.3053 97.99732 -71.29427 -7.10169 138.97155 -16.21483 -55.63482 60.3979 -21.28025 -75.23 -0.80544 27.82342 4.82448 -2.2222 -135.39818 19.23811 16.64619 9.18428 33.45996 -0.14231 -11.95085 -143.99711 19.20603 6.45813 1.68819
-0.18769 0.39754 0.37445 188.42574 0 -5.98329 -58.06927 12.08807 52.35918 -66.57756 38.96073 22.50049 130.16107 -31.23477 30.78879 67.98843 96.85618 -72.14125 -8.02694 138.76114 -16.21238 -55.62387 60.07743 -17.39694 -75.21813 6.28803 28.07995 4.63598 -3.02735 -135.96995 19.31454 16.89815 9.00964 33.66879 -0.16157 -11.38541 -144.19204 19.23246 8.75592 2.47209
-0.18624 0.39574 0.37444 188.09511 0 -5.72632 -58.06927 11.76082 52.29057 -66.57756 38.96073 21.38878 130.57137 -30.9622 32.42865 67.60985 95.35565 -73.22042 -9.20212 138.49002 -16.22046 -55.65956 59.63732 -12.53996 -75.25724 15.06969 28.37154 4.43704 -3.82553 -136.5924 19.39502 17.21588 8.86499 33.90379 -0.18724 -10.83177 -144.40365 19.20686 10.8971 3.13683
-0.18476 0.39414 0.37463 187.82154 0 -5.52865 -58.06927 11.52091 52.25518 -66.57756 38.96073 20.56567 130.82 -30.70114 33.44525 67.41768 94.5291 -73.86816 -9.91474 138.33557 -16.20724 -55.60124 59.39042 -9.46554 -75.19326 20.76063 28.61568 4.24703 -4.66913 -137.14656 19.46718 17.36057 8.63925 34.11216 -0.20795 -10.2422 -144.60103 19.28868 13.46719 4.08627
-0.18348 0.39335 0.37546 187.70916 0 -5.50889 -58.06927 11.5479 52.33865 -66.57756 38.96074 20.61671 130.62068 -30.48071 32.64285 67.68751 95.73053 -73.22278 -9.24077 138.50042 -16.12726 -55.24851 59.79977 -11.66295 -74.80608 17.2597 28.68633 4.09314 -5.6184 -137.4606 19.51898 17.32017 8.29018 34.20243 -0.20703 -9.5568 -144.72506 19.68191 17.25369 5.83743
-0.18218 0.39277 0.37649 187.65427 0 -5.55018 -58.06927 11.66386 52.45573 -66.57756 38.96074 20.96156 130.26349 -30.27363 31.22313 68.1364 97.6004 -72.1471 -8.10489 138.78575 -16.02732 -54.80779 60.3987 -15.665 -74.32231 10.63653 28.70802 3.95005 -6.60597 -137.70247 19.56176 17.05895 7.84581 34.26453 -0.20043 -8.83955 -144.83348 20.17998 21.42678 7.85828
-0.18084 0.39204 0.37742 187.57173 0 -5.56245 -58.06927 11.73401 52.55043 -66.57756 38.96074 21.15648 129.98663 -30.06055 30.1311 68.5029 99.10014 -71.30336 -7.21669 139.02339 -15.94211 -54.432 60.86575 -18.76647 -73.90982 5.60302 28.76193 3.80261 -7.56747 -137.98514 19.60644 16.69986 7.38188 34.34993 -0.1969 -8.14373 -144.95784 20.61964 25.32251 9.71686
-0.1797 0.39152 0.37841 187.49561 0 -5.57855 -58.06927 11.82511 52.67323 -66.57756 38.96074 21.41291 129.6676 -29.84596 28.83905 68.8854 100.8746 -70.3107 -6.17428 139.2297 -15.83346 -53.95283 61.51869 -22.17633 -73.38385 -0.0956 28.77706 3.65101 -8.57127 -138.23897 19.66018 17.14824 7.17286 34.39519 -0.19228 -7.41587 -145.04952 21.10516 29.66432 11.74875
-0.17814 0.39063 0.3793 187.41964 0 -5.60153 -58.06927 11.89372 52.74584 -66.57756 38.96075 21.61397 129.40469 -29.63812 27.82157 69.26937 102.23396 -69.52611 -5.34348 139.53068 -15.7683 -53.66546 61.83176 -25.38202 -73.06842 -5.16854 28.86056 3.51131 -9.49308 -138.53446 19.69326 15.89886 6.42237 34.51573 -0.1883 -6.74879 -145.20239 21.51966 33.16294 13.48204
-0.17544 0.38869 0.3799 187.33231 0 -5.63084 -58.06927 11.8872 52.67679 -66.57758 38.9608 21.58953 129.28943 -29.44612 27.65795 69.6562 102.33443 -69.39572 -5.18132 140.06025 -15.83346 -53.95282 61.16717 -27.61274 -73.38385 -7.79052 29.13867 3.4004 -10.18927 -138.95489 19.66881 9.69757 4.09788 34.85147 -0.18727 -6.25049 -145.54529 21.71529 34.23012 14.31732
-0.17233 0.38637 0.3804 187.24315 0 -5.66445 -58.06927 11.85422 52.55582 -66.5776 38.96087 21.49992 129.24306 -29.26049 27.79905 70.03125 101.98953 -69.49162 -5.25046 140.68119 -15.94211 -54.43199 60.15504 -29.57497 -73.90983 -9.67625 29.48776 3.30046 -10.79948 -139.4203 19.62485 1.8515 1.24953 35.26328 -0.18755 -5.81618 -145.94671 21.83526 34.43426 14.84273
-0.1694 0.3842 0.38093 187.15285 0 -5.69528 -58.06927 11.82731 52.45504 -66.57762 38.96093 21.4424 129.19794 -29.07191 27.83982 70.37999 101.812 -69.50203 -5.23382 141.26337 -16.02732 -54.80777 59.29676 -31.64495 -74.32232 -11.88049 29.80796 3.19817 -11.44111 -139.86953 19.59093 -5.02895 -1.29001 35.63938 -0.18652 -5.35718 -146.30951 21.98797 35.03688 15.51468
